<svg width="321" height="115" viewBox="0 0 321 115" fill="none" xmlns="http://www.w3.org/2000/svg">
<mask id="path-1-outside-1_21_20" maskUnits="userSpaceOnUse" x="0" y="0" width="321" height="115" fill="black">
<rect fill="white" width="321" height="115"/>
<path d="M35.56 91.44C28.92 91.44 22.48 90.56 16.24 88.8C10.08 86.96 5.12 84.6 1.36 81.72L7.96 67.08C11.56 69.72 15.84 71.84 20.8 73.44C25.76 75.04 30.72 75.84 35.68 75.84C41.2 75.84 45.28 75.04 47.92 73.44C50.56 71.76 51.88 69.56 51.88 66.84C51.88 64.84 51.08 63.2 49.48 61.92C47.96 60.56 45.96 59.48 43.48 58.68C41.08 57.88 37.8 57 33.64 56.04C27.24 54.52 22 53 17.92 51.48C13.84 49.96 10.32 47.52 7.36 44.16C4.48 40.8 3.04 36.32 3.04 30.72C3.04 25.84 4.36 21.44 7 17.52C9.64 13.52 13.6 10.36 18.88 8.04C24.24 5.72 30.76 4.56 38.44 4.56C43.8 4.56 49.04 5.2 54.16 6.48C59.28 7.76 63.76 9.6 67.6 12L61.6 26.76C53.84 22.36 46.08 20.16 38.32 20.16C32.88 20.16 28.84 21.04 26.2 22.8C23.64 24.56 22.36 26.88 22.36 29.76C22.36 32.64 23.84 34.8 26.8 36.24C29.84 37.6 34.44 38.96 40.6 40.32C47 41.84 52.24 43.36 56.32 44.88C60.4 46.4 63.88 48.8 66.76 52.08C69.72 55.36 71.2 59.8 71.2 65.4C71.2 70.2 69.84 74.6 67.12 78.6C64.48 82.52 60.48 85.64 55.12 87.96C49.76 90.28 43.24 91.44 35.56 91.44ZM148.203 25.44V79.2C148.203 91.04 145.203 99.84 139.203 105.6C133.203 111.36 124.483 114.24 113.043 114.24C106.963 114.24 101.203 113.48 95.7634 111.96C90.4034 110.44 85.8834 108.24 82.2034 105.36L89.6434 91.92C92.3634 94.16 95.6834 95.92 99.6034 97.2C103.523 98.48 107.483 99.12 111.483 99.12C117.723 99.12 122.283 97.68 125.163 94.8C128.043 91.92 129.483 87.52 129.483 81.6V79.44C127.083 81.84 124.243 83.68 120.963 84.96C117.683 86.24 114.163 86.88 110.403 86.88C101.923 86.88 95.2034 84.48 90.2434 79.68C85.2834 74.8 82.8034 67.52 82.8034 57.84V25.44H101.523V55.08C101.523 65.56 105.883 70.8 114.603 70.8C119.083 70.8 122.683 69.36 125.403 66.48C128.123 63.52 129.483 59.16 129.483 53.4V25.44H148.203ZM204.786 24.48C212.786 24.48 219.226 26.88 224.106 31.68C229.066 36.48 231.546 43.6 231.546 53.04V90H212.826V55.92C212.826 50.8 211.706 47 209.466 44.52C207.226 41.96 203.986 40.68 199.746 40.68C195.026 40.68 191.266 42.16 188.466 45.12C185.666 48 184.266 52.32 184.266 58.08V90H165.546V25.44H183.426V33C185.906 30.28 188.986 28.2 192.666 26.76C196.346 25.24 200.386 24.48 204.786 24.48ZM276.235 64.68L267.235 73.56V90H248.515V0.959995H267.235V51.36L294.595 25.44H316.915L290.035 52.8L319.315 90H296.635L276.235 64.68Z"/>
</mask>
<path d="M35.56 91.44C28.92 91.44 22.48 90.56 16.24 88.8C10.08 86.96 5.12 84.6 1.36 81.72L7.96 67.08C11.56 69.72 15.84 71.84 20.8 73.44C25.76 75.04 30.72 75.84 35.68 75.84C41.2 75.84 45.28 75.04 47.92 73.44C50.56 71.76 51.88 69.56 51.88 66.84C51.88 64.84 51.08 63.2 49.48 61.92C47.96 60.56 45.96 59.48 43.48 58.68C41.08 57.88 37.8 57 33.64 56.04C27.24 54.52 22 53 17.92 51.48C13.84 49.96 10.32 47.52 7.36 44.16C4.48 40.8 3.04 36.32 3.04 30.72C3.04 25.84 4.36 21.44 7 17.52C9.64 13.52 13.6 10.36 18.88 8.04C24.24 5.72 30.76 4.56 38.44 4.56C43.8 4.56 49.04 5.2 54.16 6.48C59.28 7.76 63.76 9.6 67.6 12L61.6 26.76C53.84 22.36 46.08 20.16 38.32 20.16C32.88 20.16 28.84 21.04 26.2 22.8C23.64 24.56 22.36 26.88 22.36 29.76C22.36 32.64 23.84 34.8 26.8 36.24C29.84 37.6 34.44 38.96 40.6 40.32C47 41.84 52.24 43.36 56.32 44.88C60.4 46.4 63.88 48.8 66.76 52.08C69.72 55.36 71.2 59.8 71.2 65.4C71.2 70.2 69.84 74.6 67.12 78.6C64.48 82.52 60.48 85.64 55.12 87.96C49.76 90.28 43.24 91.44 35.56 91.44ZM148.203 25.44V79.2C148.203 91.04 145.203 99.84 139.203 105.6C133.203 111.36 124.483 114.24 113.043 114.24C106.963 114.24 101.203 113.48 95.7634 111.96C90.4034 110.44 85.8834 108.24 82.2034 105.36L89.6434 91.92C92.3634 94.16 95.6834 95.92 99.6034 97.2C103.523 98.48 107.483 99.12 111.483 99.12C117.723 99.12 122.283 97.68 125.163 94.8C128.043 91.92 129.483 87.52 129.483 81.6V79.44C127.083 81.84 124.243 83.68 120.963 84.96C117.683 86.24 114.163 86.88 110.403 86.88C101.923 86.88 95.2034 84.48 90.2434 79.68C85.2834 74.8 82.8034 67.52 82.8034 57.84V25.44H101.523V55.08C101.523 65.56 105.883 70.8 114.603 70.8C119.083 70.8 122.683 69.36 125.403 66.48C128.123 63.52 129.483 59.16 129.483 53.4V25.44H148.203ZM204.786 24.48C212.786 24.48 219.226 26.88 224.106 31.68C229.066 36.48 231.546 43.6 231.546 53.04V90H212.826V55.92C212.826 50.8 211.706 47 209.466 44.52C207.226 41.96 203.986 40.68 199.746 40.68C195.026 40.68 191.266 42.16 188.466 45.12C185.666 48 184.266 52.32 184.266 58.08V90H165.546V25.44H183.426V33C185.906 30.28 188.986 28.2 192.666 26.76C196.346 25.24 200.386 24.48 204.786 24.48ZM276.235 64.68L267.235 73.56V90H248.515V0.959995H267.235V51.36L294.595 25.44H316.915L290.035 52.8L319.315 90H296.635L276.235 64.68Z" fill="#A3A3A3" fill-opacity="0.66"/>
<path d="M16.24 88.8L16.0969 89.2791L16.1043 89.2812L16.24 88.8ZM1.36 81.72L0.904179 81.5145L0.74126 81.8759L1.05596 82.1169L1.36 81.72ZM7.96 67.08L8.25568 66.6768L7.75788 66.3117L7.50418 66.8745L7.96 67.08ZM20.8 73.44L20.9535 72.9641L20.9535 72.9641L20.8 73.44ZM47.92 73.44L48.1792 73.8677L48.1884 73.8618L47.92 73.44ZM49.48 61.92L49.1466 62.2926L49.1569 62.3018L49.1677 62.3104L49.48 61.92ZM43.48 58.68L43.3219 59.1544L43.3265 59.1559L43.48 58.68ZM33.64 56.04L33.5245 56.5265L33.5276 56.5272L33.64 56.04ZM17.92 51.48L18.0946 51.0115L18.0946 51.0115L17.92 51.48ZM7.36 44.16L6.98034 44.4854L6.98482 44.4905L7.36 44.16ZM7 17.52L7.41474 17.7993L7.41731 17.7954L7 17.52ZM18.88 8.04L18.6814 7.58113L18.6789 7.58224L18.88 8.04ZM54.16 6.48L54.2813 5.99492L54.2813 5.99492L54.16 6.48ZM67.6 12L68.0632 12.1883L68.2215 11.7988L67.865 11.576L67.6 12ZM61.6 26.76L61.3534 27.1949L61.8488 27.4758L62.0632 26.9483L61.6 26.76ZM26.2 22.8L25.9226 22.3839L25.9167 22.388L26.2 22.8ZM26.8 36.24L26.5813 36.6896L26.5885 36.6931L26.5958 36.6964L26.8 36.24ZM40.6 40.32L40.7156 39.8335L40.7078 39.8318L40.6 40.32ZM56.32 44.88L56.4946 44.4115L56.4946 44.4115L56.32 44.88ZM66.76 52.08L66.3842 52.4099L66.3888 52.415L66.76 52.08ZM67.12 78.6L66.7065 78.3188L66.7053 78.3207L67.12 78.6ZM55.12 87.96L54.9214 87.5011L54.9214 87.5011L55.12 87.96ZM35.56 90.94C28.9648 90.94 22.5705 90.066 16.3757 88.3188L16.1043 89.2812C22.3895 91.054 28.8752 91.94 35.56 91.94V90.94ZM16.3831 88.3209C10.2618 86.4925 5.36198 84.1555 1.66404 81.3231L1.05596 82.1169C4.87802 85.0445 9.89816 87.4275 16.0969 89.2791L16.3831 88.3209ZM1.81582 81.9255L8.41582 67.2855L7.50418 66.8745L0.904179 81.5145L1.81582 81.9255ZM7.66432 67.4832C11.3141 70.1597 15.6439 72.3021 20.6465 73.9159L20.9535 72.9641C16.0361 71.3779 11.8059 69.2803 8.25568 66.6768L7.66432 67.4832ZM20.6465 73.9159C25.6536 75.531 30.6653 76.34 35.68 76.34V75.34C30.7747 75.34 25.8664 74.549 20.9535 72.9641L20.6465 73.9159ZM35.68 76.34C41.2292 76.34 45.421 75.5392 48.1792 73.8676L47.6609 73.0124C45.139 74.5408 41.1708 75.34 35.68 75.34V76.34ZM48.1884 73.8618C50.9472 72.1063 52.38 69.7591 52.38 66.84H51.38C51.38 69.3609 50.1728 71.4137 47.6516 73.0182L48.1884 73.8618ZM52.38 66.84C52.38 64.6838 51.5076 62.9017 49.7923 61.5296L49.1677 62.3104C50.6524 63.4983 51.38 64.9962 51.38 66.84H52.38ZM49.8134 61.5474C48.229 60.1297 46.1622 59.0199 43.6335 58.2041L43.3265 59.1559C45.7578 59.9401 47.691 60.9903 49.1466 62.2926L49.8134 61.5474ZM43.6381 58.2057C41.2164 57.3984 37.9189 56.5143 33.7524 55.5528L33.5276 56.5272C37.6811 57.4857 40.9436 58.3616 43.3219 59.1543L43.6381 58.2057ZM33.7555 55.5535C27.3666 54.0361 22.1482 52.5216 18.0946 51.0115L17.7454 51.9485C21.8518 53.4784 27.1134 55.0038 33.5245 56.5265L33.7555 55.5535ZM18.0946 51.0115C14.094 49.5211 10.6423 47.1295 7.73518 43.8295L6.98482 44.4905C9.99769 47.9105 13.586 50.3989 17.7454 51.9485L18.0946 51.0115ZM7.73963 43.8346C4.95616 40.5872 3.54 36.2332 3.54 30.72H2.54C2.54 36.4068 4.00384 41.0128 6.98037 44.4854L7.73963 43.8346ZM3.54 30.72C3.54 25.9361 4.8322 21.634 7.41472 17.7993L6.58528 17.2407C3.8878 21.246 2.54 25.7439 2.54 30.72H3.54ZM7.41731 17.7954C9.99436 13.8908 13.8711 10.787 19.0811 8.49776L18.6789 7.58224C13.3289 9.93299 9.28564 13.1492 6.5827 17.2446L7.41731 17.7954ZM19.0786 8.49886C24.3595 6.2131 30.8078 5.06 38.44 5.06V4.06C30.7122 4.06 24.1205 5.2269 18.6814 7.58114L19.0786 8.49886ZM38.44 5.06C43.7598 5.06 48.959 5.69514 54.0387 6.96507L54.2813 5.99492C49.121 4.70486 43.8402 4.06 38.44 4.06V5.06ZM54.0387 6.96507C59.1161 8.23442 63.5461 10.0559 67.335 12.424L67.865 11.576C63.9739 9.14408 59.4439 7.28558 54.2813 5.99492L54.0387 6.96507ZM67.1368 11.8117L61.1368 26.5717L62.0632 26.9483L68.0632 12.1883L67.1368 11.8117ZM61.8466 26.3251C54.0228 21.8889 46.1787 19.66 38.32 19.66V20.66C45.9813 20.66 53.6572 22.8311 61.3534 27.1949L61.8466 26.3251ZM38.32 19.66C32.8439 19.66 28.6848 20.5426 25.9227 22.384L26.4774 23.216C28.9952 21.5374 32.9161 20.66 38.32 20.66V19.66ZM25.9167 22.388C23.2337 24.2326 21.86 26.7006 21.86 29.76H22.86C22.86 27.0594 24.0464 24.8874 26.4833 23.212L25.9167 22.388ZM21.86 29.76C21.86 31.2903 22.2548 32.6511 23.0575 33.8226C23.8576 34.9903 25.0431 35.9413 26.5813 36.6896L27.0187 35.7904C25.597 35.0987 24.5624 34.2497 23.8825 33.2574C23.2052 32.2689 22.86 31.1096 22.86 29.76H21.86ZM26.5958 36.6964C29.6831 38.0776 34.3229 39.4462 40.4922 40.8082L40.7078 39.8318C34.5571 38.4738 29.9969 37.1224 27.0042 35.7836L26.5958 36.6964ZM40.4845 40.8065C46.8734 42.3238 52.0918 43.8384 56.1454 45.3485L56.4946 44.4115C52.3882 42.8816 47.1266 41.3561 40.7155 39.8335L40.4845 40.8065ZM56.1454 45.3485C60.1478 46.8396 63.5587 49.1919 66.3843 52.4099L67.1357 51.7501C64.2013 48.4081 60.6522 45.9604 56.4946 44.4115L56.1454 45.3485ZM66.3888 52.415C69.2455 55.5805 70.7 59.8895 70.7 65.4H71.7C71.7 59.7105 70.1945 55.1395 67.1312 51.745L66.3888 52.415ZM70.7 65.4C70.7 70.0989 69.3706 74.4011 66.7065 78.3188L67.5335 78.8812C70.3094 74.7989 71.7 70.3011 71.7 65.4H70.7ZM66.7053 78.3207C64.13 82.1446 60.2144 85.2101 54.9214 87.5011L55.3186 88.4189C60.7456 86.0699 64.83 82.8954 67.5347 78.8793L66.7053 78.3207ZM54.9214 87.5011C49.6405 89.7869 43.1922 90.94 35.56 90.94V91.94C43.2878 91.94 49.8795 90.7731 55.3186 88.4189L54.9214 87.5011ZM148.203 25.44H148.703V24.94H148.203V25.44ZM139.203 105.6L139.55 105.961L139.55 105.961L139.203 105.6ZM95.7634 111.96L95.627 112.441L95.6289 112.442L95.7634 111.96ZM82.2034 105.36L81.766 105.118L81.5595 105.491L81.8953 105.754L82.2034 105.36ZM89.6434 91.92L89.9613 91.534L89.4972 91.1518L89.206 91.6778L89.6434 91.92ZM99.6034 97.2L99.4482 97.6753L99.6034 97.2ZM125.163 94.8L125.517 95.1536L125.163 94.8ZM129.483 79.44H129.983V78.2329L129.13 79.0864L129.483 79.44ZM120.963 84.96L120.782 84.4942L120.782 84.4942L120.963 84.96ZM90.2434 79.68L89.8928 80.0364L89.8957 80.0393L90.2434 79.68ZM82.8034 25.44V24.94H82.3034V25.44H82.8034ZM101.523 25.44H102.023V24.94H101.523V25.44ZM125.403 66.48L125.767 66.8233L125.772 66.8183L125.403 66.48ZM129.483 25.44V24.94H128.983V25.44H129.483ZM147.703 25.44V79.2H148.703V25.44H147.703ZM147.703 79.2C147.703 90.9624 144.724 99.6076 138.857 105.239L139.55 105.961C145.683 100.072 148.703 91.1176 148.703 79.2H147.703ZM138.857 105.239C132.981 110.881 124.404 113.74 113.043 113.74V114.74C124.563 114.74 133.426 111.839 139.55 105.961L138.857 105.239ZM113.043 113.74C107.005 113.74 101.291 112.985 95.898 111.478L95.6289 112.442C101.116 113.975 106.921 114.74 113.043 114.74V113.74ZM95.8998 111.479C90.5905 109.973 86.1317 107.799 82.5116 104.966L81.8953 105.754C85.6351 108.681 90.2164 110.907 95.627 112.441L95.8998 111.479ZM82.6409 105.602L90.0809 92.1622L89.206 91.6778L81.766 105.118L82.6409 105.602ZM89.3256 92.306C92.1012 94.5918 95.4789 96.3792 99.4482 97.6753L99.7586 96.7247C95.888 95.4608 92.6257 93.7282 89.9613 91.534L89.3256 92.306ZM99.4482 97.6753C103.417 98.9712 107.429 99.62 111.483 99.62V98.62C107.538 98.62 103.63 97.9888 99.7586 96.7247L99.4482 97.6753ZM111.483 99.62C117.787 99.62 122.504 98.1669 125.517 95.1536L124.81 94.4464C122.063 97.1931 117.66 98.62 111.483 98.62V99.62ZM125.517 95.1536C128.526 92.1444 129.983 87.5924 129.983 81.6H128.983C128.983 87.4476 127.561 91.6956 124.81 94.4464L125.517 95.1536ZM129.983 81.6V79.44H128.983V81.6H129.983ZM129.13 79.0864C126.781 81.4357 124 83.2384 120.782 84.4942L121.145 85.4258C124.487 84.1216 127.386 82.2443 129.837 79.7936L129.13 79.0864ZM120.782 84.4942C117.563 85.7501 114.106 86.38 110.403 86.38V87.38C114.221 87.38 117.803 86.7299 121.145 85.4258L120.782 84.4942ZM110.403 86.38C102.022 86.38 95.4376 84.0108 90.5911 79.3207L89.8957 80.0393C94.9693 84.9492 101.825 87.38 110.403 87.38V86.38ZM90.5941 79.3236C85.762 74.5694 83.3034 67.4394 83.3034 57.84H82.3034C82.3034 67.6006 84.8049 75.0306 89.8928 80.0364L90.5941 79.3236ZM83.3034 57.84V25.44H82.3034V57.84H83.3034ZM82.8034 25.94H101.523V24.94H82.8034V25.94ZM101.023 25.44V55.08H102.023V25.44H101.023ZM101.023 55.08C101.023 60.377 102.123 64.4428 104.409 67.1898C106.709 69.9544 110.14 71.3 114.603 71.3V70.3C110.347 70.3 107.237 69.0256 105.178 66.5502C103.103 64.0572 102.023 60.263 102.023 55.08H101.023ZM114.603 71.3C119.201 71.3 122.94 69.8169 125.767 66.8233L125.04 66.1367C122.427 68.9031 118.966 70.3 114.603 70.3V71.3ZM125.772 66.8183C128.607 63.7328 129.983 59.2314 129.983 53.4H128.983C128.983 59.0886 127.64 63.3072 125.035 66.1417L125.772 66.8183ZM129.983 53.4V25.44H128.983V53.4H129.983ZM129.483 25.94H148.203V24.94H129.483V25.94ZM224.106 31.68L223.756 32.0365L223.759 32.0393L224.106 31.68ZM231.546 90V90.5H232.046V90H231.546ZM212.826 90H212.326V90.5H212.826V90ZM209.466 44.52L209.09 44.8493L209.095 44.8551L209.466 44.52ZM188.466 45.12L188.825 45.4686L188.829 45.4636L188.466 45.12ZM184.266 90V90.5H184.766V90H184.266ZM165.546 90H165.046V90.5H165.546V90ZM165.546 25.44V24.94H165.046V25.44H165.546ZM183.426 25.44H183.926V24.94H183.426V25.44ZM183.426 33H182.926V34.2905L183.796 33.3369L183.426 33ZM192.666 26.76L192.848 27.2257L192.857 27.2221L192.666 26.76ZM204.786 24.98C212.679 24.98 218.985 27.3439 223.756 32.0365L224.457 31.3235C219.468 26.4161 212.894 23.98 204.786 23.98V24.98ZM223.759 32.0393C228.59 36.7146 231.046 43.6842 231.046 53.04H232.046C232.046 43.5158 229.543 36.2454 224.454 31.3207L223.759 32.0393ZM231.046 53.04V90H232.046V53.04H231.046ZM231.546 89.5H212.826V90.5H231.546V89.5ZM213.326 90V55.92H212.326V90H213.326ZM213.326 55.92C213.326 50.7398 212.195 46.795 209.837 44.1849L209.095 44.8551C211.218 47.205 212.326 50.8602 212.326 55.92H213.326ZM209.843 44.1907C207.485 41.4963 204.092 40.18 199.746 40.18V41.18C203.88 41.18 206.968 42.4237 209.09 44.8493L209.843 44.1907ZM199.746 40.18C194.913 40.18 191.013 41.7005 188.103 44.7764L188.829 45.4636C191.52 42.6195 195.14 41.18 199.746 41.18V40.18ZM188.108 44.7715C185.184 47.7787 183.766 52.2464 183.766 58.08H184.766C184.766 52.3936 186.148 48.2213 188.825 45.4685L188.108 44.7715ZM183.766 58.08V90H184.766V58.08H183.766ZM184.266 89.5H165.546V90.5H184.266V89.5ZM166.046 90V25.44H165.046V90H166.046ZM165.546 25.94H183.426V24.94H165.546V25.94ZM182.926 25.44V33H183.926V25.44H182.926ZM183.796 33.3369C186.22 30.6777 189.235 28.6398 192.848 27.2256L192.484 26.2944C188.738 27.7602 185.592 29.8823 183.057 32.6631L183.796 33.3369ZM192.857 27.2221C196.471 25.7296 200.445 24.98 204.786 24.98V23.98C200.328 23.98 196.222 24.7504 192.475 26.2979L192.857 27.2221ZM276.235 64.68L276.624 64.3663L276.277 63.9357L275.884 64.3241L276.235 64.68ZM267.235 73.56L266.884 73.2041L266.735 73.3509V73.56H267.235ZM267.235 90V90.5H267.735V90H267.235ZM248.515 90H248.015V90.5H248.515V90ZM248.515 0.959995V0.459995H248.015V0.959995H248.515ZM267.235 0.959995H267.735V0.459995H267.235V0.959995ZM267.235 51.36H266.735V52.5224L267.579 51.723L267.235 51.36ZM294.595 25.44V24.94H294.396L294.251 25.077L294.595 25.44ZM316.915 25.44L317.272 25.7904L318.107 24.94H316.915V25.44ZM290.035 52.8L289.678 52.4496L289.37 52.7635L289.642 53.1092L290.035 52.8ZM319.315 90V90.5H320.345L319.708 89.6908L319.315 90ZM296.635 90L296.246 90.3137L296.396 90.5H296.635V90ZM275.884 64.3241L266.884 73.2041L267.586 73.9159L276.586 65.0359L275.884 64.3241ZM266.735 73.56V90H267.735V73.56H266.735ZM267.235 89.5H248.515V90.5H267.235V89.5ZM249.015 90V0.959995H248.015V90H249.015ZM248.515 1.45999H267.235V0.459995H248.515V1.45999ZM266.735 0.959995V51.36H267.735V0.959995H266.735ZM267.579 51.723L294.939 25.803L294.251 25.077L266.891 50.997L267.579 51.723ZM294.595 25.94H316.915V24.94H294.595V25.94ZM316.558 25.0896L289.678 52.4496L290.392 53.1504L317.272 25.7904L316.558 25.0896ZM289.642 53.1092L318.922 90.3092L319.708 89.6908L290.428 52.4908L289.642 53.1092ZM319.315 89.5H296.635V90.5H319.315V89.5ZM297.024 89.6863L276.624 64.3663L275.846 64.9937L296.246 90.3137L297.024 89.6863Z" fill="#D8D8D8" fill-opacity="0.66" mask="url(#path-1-outside-1_21_20)"/>
</svg>
